<svg width="207" height="49" viewBox="0 0 207 49" fill="none" xmlns="http://www.w3.org/2000/svg">
<path fill-rule="evenodd" clip-rule="evenodd" d="M38.6122 24.8629H23.3348L43.8509 49H58.6248L38.6122 24.8629Z" fill="#9747FF"/>
<path d="M27.3121 37.966H19.3564V45.7377H27.3121V37.966Z" fill="#9747FF"/>
<path fill-rule="evenodd" clip-rule="evenodd" d="M0 47.6562L48.787 0H32.4431L11.5373 20.4216V9.85699H0V47.6562Z" fill="white"/>
<path fill-rule="evenodd" clip-rule="evenodd" d="M114.709 15.6147C114.709 14.1216 114.207 12.974 113.203 12.1715C112.199 11.3693 110.728 10.9682 108.788 10.9682H103.587V20.2942H108.788C110.727 20.2942 112.199 19.8875 113.203 19.0741C114.207 18.2606 114.709 17.1077 114.709 15.6147ZM114.811 30.6903L109.918 23.8375C109.712 23.8599 109.405 23.8711 108.994 23.8711H103.587V30.6903H99.1385V7.29101H108.994C111.07 7.29101 112.878 7.62522 114.418 8.29392C115.958 8.96263 117.138 9.92047 117.96 11.1686C118.781 12.4167 119.192 13.8988 119.192 15.6147C119.192 17.3305 118.753 18.8904 117.874 20.1607C116.996 21.4309 115.735 22.3778 114.093 23.0017L119.602 30.6903H114.811Z" fill="white"/>
<path fill-rule="evenodd" clip-rule="evenodd" d="M135.926 11.6363L127.576 30.6903H122.991L133.77 7.29101H138.15L148.964 30.6903H144.31L135.926 11.6363Z" fill="white"/>
<path fill-rule="evenodd" clip-rule="evenodd" d="M164.021 31.0245C160.713 31.0245 158.136 30.1165 156.287 28.3004C154.439 26.4838 153.515 23.882 153.515 20.4949V7.29101H157.964V20.3278C157.964 24.9183 159.995 27.2138 164.055 27.2138C168.115 27.2138 170.112 24.9185 170.112 20.3278V7.29101H174.493V20.4949C174.493 23.882 173.574 26.4838 171.738 28.3004C169.901 30.1165 167.329 31.0245 164.021 31.0245Z" fill="white"/>
<path fill-rule="evenodd" clip-rule="evenodd" d="M193.212 27.0131C194.968 27.0131 196.514 26.6845 197.849 26.027C199.183 25.3695 200.21 24.4337 200.928 23.2192C201.647 22.0044 202.006 20.5951 202.006 18.9904C202.006 17.3856 201.647 15.9766 200.928 14.7618C200.21 13.5473 199.183 12.6115 197.849 11.954C196.514 11.2965 194.968 10.9679 193.212 10.9679H187.394V27.0128L193.212 27.0131ZM182.946 7.29101H193.417C195.972 7.29101 198.242 7.77581 200.227 8.74485C202.212 9.71446 203.752 11.0849 204.847 12.8564C205.942 14.628 206.49 16.673 206.49 18.9904C206.49 21.3077 205.942 23.3527 204.847 25.1243C203.752 26.8961 202.212 28.2665 200.227 29.2361C198.242 30.2055 195.972 30.6903 193.417 30.6903H182.946V7.29101Z" fill="white"/>
<path fill-rule="evenodd" clip-rule="evenodd" d="M79.6744 20.8963L75.8759 24.7069V30.6903H71.4278V7.29102H75.8759V19.2916L87.7161 7.29102H92.7127L82.6516 17.754L93.3288 30.6903H88.1267L79.6744 20.8963Z" fill="white"/>
<path fill-rule="evenodd" clip-rule="evenodd" d="M207 41.0033V41.6491H203.14V36.4534H206.893V37.0992H203.9V38.6949H206.567V39.3258H203.9V41.0031H207L207 41.0033ZM200.451 36.4534V41.6491H199.828L196.637 37.7743V41.6491H195.877V36.4534H196.5L199.691 40.3276V36.4534H200.451ZM190.803 41.0476C191.193 41.0476 191.543 40.9613 191.855 40.7878C192.167 40.6148 192.412 40.3761 192.592 40.0715C192.771 39.7673 192.862 39.4272 192.862 39.051C192.862 38.6748 192.771 38.3347 192.592 38.0304C192.412 37.7259 192.166 37.4871 191.855 37.3141C191.543 37.1406 191.193 37.0541 190.803 37.0541C190.413 37.0541 190.059 37.1406 189.742 37.3141C189.426 37.4871 189.178 37.7259 188.998 38.0304C188.818 38.3347 188.728 38.6748 188.728 39.051C188.728 39.4272 188.818 39.7673 188.998 40.0715C189.178 40.3761 189.426 40.6148 189.742 40.7878C190.059 40.9613 190.412 41.0476 190.803 41.0476ZM190.803 41.7084C190.266 41.7084 189.782 41.5931 189.351 41.363C188.92 41.1332 188.582 40.815 188.337 40.4096C188.091 40.0038 187.968 39.5506 187.968 39.0513C187.968 38.5519 188.091 38.0987 188.337 37.6929C188.582 37.2873 188.92 36.9693 189.351 36.7395C189.782 36.5091 190.266 36.3941 190.803 36.3941C191.34 36.3941 191.815 36.5091 192.246 36.7395C192.677 36.9693 193.014 37.2861 193.257 37.6895C193.5 38.0928 193.621 38.5468 193.621 39.0515C193.621 39.5562 193.5 40.0102 193.257 40.4136C193.014 40.8169 192.677 41.1338 192.246 41.3636C191.815 41.5937 191.334 41.709 190.803 41.709V41.7084ZM184.656 39.8526V41.6488H183.904V39.8378L181.792 36.4531H182.605L184.306 39.192L186.017 36.4531H186.769L184.656 39.8526ZM178.13 39.437C178.611 39.437 178.979 39.3354 179.232 39.1324C179.485 38.9295 179.612 38.6401 179.612 38.2639C179.612 37.8877 179.485 37.5999 179.232 37.3992C178.978 37.1988 178.611 37.0986 178.13 37.0986H176.838V39.4367L178.13 39.437ZM179.635 41.6488L178.487 40.053C178.345 40.0628 178.234 40.0679 178.153 40.0679H176.838V41.6488H176.078V36.4531H178.153C178.842 36.4531 179.384 36.6141 179.779 36.9354C180.174 37.2573 180.372 37.6999 180.372 38.2641C180.372 38.665 180.27 39.0067 180.068 39.2883C179.865 39.5705 179.576 39.7759 179.201 39.9047L180.463 41.6488H179.635ZM173.754 41.0031V41.6488H169.894V36.4531H173.648V37.0989H170.654V38.6946H173.321V39.3256H170.654V41.0028L173.754 41.0031ZM168.125 36.4531L165.793 41.6488H165.04L162.7 36.4531H163.521L165.435 40.7209L167.365 36.4531H168.125ZM161.257 41.0031V41.6488H157.397V36.4531H161.15V37.0989H158.157V38.6946H160.824V39.3256H158.157V41.0028L161.257 41.0031ZM150.787 39.437C151.269 39.437 151.636 39.3354 151.889 39.1324C152.143 38.9295 152.269 38.6401 152.269 38.2639C152.269 37.8877 152.143 37.5999 151.889 37.3992C151.636 37.1988 151.269 37.0986 150.787 37.0986H149.496V39.4367L150.787 39.437ZM152.292 41.6488L151.145 40.053C151.003 40.0628 150.891 40.0679 150.81 40.0679H149.496V41.6488H148.736V36.4531H150.81C151.499 36.4531 152.041 36.6141 152.436 36.9354C152.832 37.2573 153.029 37.6999 153.029 38.2641C153.029 38.665 152.928 39.0067 152.725 39.2883C152.522 39.5705 152.234 39.7759 151.859 39.9047L153.12 41.6488H152.292ZM143.661 41.0473C144.051 41.0473 144.402 40.9611 144.713 40.7875C145.025 40.6145 145.271 40.3758 145.451 40.0712C145.63 39.767 145.721 39.4269 145.721 39.0507C145.721 38.6745 145.63 38.3344 145.451 38.0301C145.271 37.7256 145.025 37.4868 144.713 37.3139C144.402 37.1403 144.051 37.0538 143.661 37.0538C143.271 37.0538 142.918 37.1403 142.601 37.3139C142.285 37.4868 142.036 37.7256 141.857 38.0301C141.677 38.3344 141.587 38.6745 141.587 39.0507C141.587 39.4269 141.677 39.767 141.857 40.0712C142.036 40.3758 142.285 40.6145 142.601 40.7875C142.918 40.9611 143.271 41.0473 143.661 41.0473ZM143.661 41.7081C143.124 41.7081 142.64 41.5928 142.21 41.3627C141.779 41.1329 141.441 40.8147 141.196 40.4094C140.95 40.0035 140.827 39.5503 140.827 39.051C140.827 38.5516 140.95 38.0984 141.196 37.6926C141.441 37.287 141.779 36.969 142.21 36.7392C142.641 36.5088 143.125 36.3938 143.661 36.3938C144.198 36.3938 144.674 36.5088 145.105 36.7392C145.536 36.969 145.873 37.2859 146.115 37.6892C146.359 38.0926 146.48 38.5466 146.48 39.0513C146.48 39.5559 146.359 40.0099 146.115 40.4133C145.873 40.8166 145.536 41.1335 145.105 41.3633C144.674 41.5934 144.193 41.7087 143.661 41.7087V41.7081ZM136.163 37.0989V38.9099H138.83V39.5484H136.163V41.6488H135.403V36.4531H139.156V37.0989H136.163ZM131.035 41.0031V41.6488H127.175V36.4531H130.928V37.0989H127.935V38.6946H130.602V39.3256H127.935V41.0028L131.035 41.0031ZM122.678 37.0989H120.854V36.4531H125.254V37.0989H123.43V41.6488H122.678V37.0989ZM118.355 39.7558L117.208 37.2103L116.06 39.7558H118.355ZM118.621 40.3497H115.794L115.209 41.6488H114.427L116.835 36.4531H117.588L120.004 41.6488H119.206L118.621 40.3497ZM111.001 37.0989H109.177V36.4531H113.576V37.0989H111.753V41.6488H111L111.001 37.0989ZM105.759 41.7081C105.359 41.7081 104.972 41.6477 104.6 41.5262C104.228 41.405 103.935 41.2477 103.722 41.0551L104.004 40.4757C104.206 40.6537 104.466 40.7984 104.783 40.9101C105.099 41.0215 105.425 41.077 105.759 41.077C106.2 41.077 106.529 41.0039 106.747 40.8581C106.965 40.7122 107.073 40.518 107.073 40.2756C107.073 40.0973 107.014 39.9528 106.895 39.8414C106.776 39.73 106.629 39.6444 106.454 39.5853C106.279 39.526 106.032 39.4591 105.713 39.3846C105.313 39.2906 104.99 39.1965 104.744 39.1025C104.499 39.0084 104.288 38.8637 104.113 38.6683C103.939 38.473 103.851 38.2096 103.851 37.8779C103.851 37.6008 103.926 37.3511 104.075 37.1286C104.225 36.9057 104.451 36.7274 104.755 36.5939C105.06 36.4601 105.437 36.3935 105.888 36.3935C106.202 36.3935 106.511 36.4333 106.815 36.5122C107.119 36.5914 107.38 36.7053 107.598 36.854L107.347 37.4477C107.124 37.3091 106.886 37.2041 106.633 37.1325C106.379 37.0605 106.131 37.0247 105.888 37.0247C105.457 37.0247 105.134 37.1011 104.919 37.2548C104.704 37.4082 104.596 37.6061 104.596 37.8488C104.596 38.0265 104.657 38.1712 104.779 38.2829C104.9 38.3943 105.051 38.4805 105.231 38.5427C105.411 38.6045 105.655 38.67 105.964 38.7392C106.364 38.8332 106.686 38.9272 106.929 39.0213C107.172 39.1153 107.381 39.2589 107.556 39.4518C107.731 39.6447 107.818 39.9047 107.818 40.2313C107.818 40.5034 107.742 40.7517 107.59 40.977C107.438 41.2021 107.208 41.3804 106.899 41.5114C106.59 41.6426 106.21 41.7081 105.759 41.7081ZM101.885 41.0028V41.6485H98.0249V36.4529H101.778V37.0986H98.7845V38.6944H101.452V39.3253H98.7845V41.0025L101.885 41.0028ZM90.3746 36.4529H91.1342V41.0028H94.014V41.6485H90.3746V36.4529ZM86.842 39.7555L85.6947 37.21L84.5473 39.7555H86.842ZM87.1082 40.3495H84.2814L83.6963 41.6485H82.9137L85.3221 36.4529H86.0743L88.4908 41.6485H87.6928L87.1082 40.3495ZM81.395 41.0028V41.6485H77.5349V36.4529H81.2881V37.0986H78.2945V38.6944H80.9617V39.3253H78.2945V41.0025H81.3947L81.395 41.0028ZM72.9693 39.4367C73.4507 39.4367 73.8181 39.3351 74.0711 39.1321C74.3244 38.9292 74.4508 38.6398 74.4508 38.2636C74.4508 37.8874 74.3244 37.5996 74.0711 37.3989C73.8181 37.1985 73.4507 37.0983 72.9693 37.0983H71.6773V39.4364H72.969L72.9693 39.4367ZM74.474 41.6485L73.3266 40.0528C73.1848 40.0626 73.0733 40.0676 72.9922 40.0676H71.6773V41.6485H70.9176V36.4529H72.992C73.6808 36.4529 74.223 36.6138 74.6181 36.9351C75.0133 37.257 75.2107 37.6996 75.2107 38.2639C75.2107 38.6647 75.1095 39.0065 74.9067 39.2881C74.7041 39.5702 74.4152 39.7757 74.0401 39.9044L75.3015 41.6485H74.4734H74.474Z" fill="white"/>
</svg>
